<mxfile host="app.diagrams.net" modified="2024-07-24T01:08:34.766Z" agent="Mozilla/5.0 (Macintosh; Intel Mac OS X 10_15_7) AppleWebKit/537.36 (KHTML, like Gecko) Chrome/126.0.0.0 Safari/537.36" version="24.6.4" etag="3z6mRWU6WvMbnayaXaUI" type="google">
  <diagram name="Page-1" id="Z24EPSqC7-ZLOVr7-3XL">
    <mxGraphModel dx="3205" dy="1023" grid="1" gridSize="10" guides="1" tooltips="1" connect="1" arrows="1" fold="1" page="1" pageScale="1" pageWidth="850" pageHeight="1100" math="0" shadow="0">
      <root>
        <mxCell id="0" />
        <mxCell id="1" parent="0" />
        <mxCell id="2" value="AWS Account" style="html=1;overflow=block;blockSpacing=1;whiteSpace=wrap;fontSize=18.3;fontColor=#232f3e;spacing=0;strokeColor=#232f3e;strokeOpacity=100;fillOpacity=0;rounded=1;absoluteArcSize=1;arcSize=12;fillColor=#ffffff;strokeWidth=2.3;container=1;pointerEvents=0;collapsible=0;recursiveResize=0;lucidId=_YvMQiWvPY6W;" vertex="1" parent="1">
          <mxGeometry x="915" y="195" width="1680" height="990" as="geometry" />
        </mxCell>
        <mxCell id="3" value="Region" style="html=1;overflow=block;blockSpacing=1;whiteSpace=wrap;fontSize=18.3;fontColor=#147eba;spacing=0;strokeColor=#147eba;strokeOpacity=100;fillOpacity=0;rounded=1;absoluteArcSize=1;arcSize=12;fillColor=#ffffff;dashed=1;fixDash=1;dashPattern=6 5;strokeWidth=2.3;container=1;pointerEvents=0;collapsible=0;recursiveResize=0;lucidId=9QJM80IVYh6_;" vertex="1" parent="1">
          <mxGeometry x="960" y="240" width="1590" height="900" as="geometry" />
        </mxCell>
        <mxCell id="4" value="Virtual Private Cloud (VPC)" style="html=1;overflow=block;blockSpacing=1;whiteSpace=wrap;fontSize=18.3;fontColor=#248814;spacing=0;strokeColor=#248814;strokeOpacity=100;fillOpacity=0;rounded=1;absoluteArcSize=1;arcSize=12;fillColor=#ffffff;strokeWidth=2.3;container=1;pointerEvents=0;collapsible=0;recursiveResize=0;lucidId=TXJMV_QqjrSG;" vertex="1" parent="1">
          <mxGeometry x="1005" y="285" width="1500" height="810" as="geometry" />
        </mxCell>
        <mxCell id="5" value="Public Subnet" style="html=1;overflow=block;blockSpacing=1;whiteSpace=wrap;fontSize=18.3;fontColor=#248814;spacing=0;strokeColor=none;strokeOpacity=100;fillOpacity=13;rounded=1;absoluteArcSize=1;arcSize=12;fillColor=#248814;strokeWidth=0;container=1;pointerEvents=0;collapsible=0;recursiveResize=0;lucidId=XgKM0bekm8-m;" vertex="1" parent="1">
          <mxGeometry x="1261" y="488" width="1034" height="428" as="geometry" />
        </mxCell>
        <mxCell id="6" value="Availability Zone (AZ)" style="html=1;overflow=block;blockSpacing=1;whiteSpace=wrap;fontSize=18.3;fontColor=#147eba;spacing=0;strokeColor=#147eba;strokeOpacity=100;fillOpacity=0;rounded=1;absoluteArcSize=1;arcSize=12;fillColor=#ffffff;dashed=1;fixDash=1;dashPattern=6 5;strokeWidth=2.3;container=1;pointerEvents=0;collapsible=0;recursiveResize=0;lucidId=CyLM2.gjfOU.;" vertex="1" parent="1">
          <mxGeometry x="1231" y="450" width="1094" height="499" as="geometry" />
        </mxCell>
        <mxCell id="7" value="EC2 Instance (Allora Worker Node running Docker)" style="html=1;overflow=block;blockSpacing=1;whiteSpace=wrap;fontSize=18.5;fontColor=#d86613;spacing=0;verticalAlign=top;strokeColor=#d86613;strokeOpacity=100;fillOpacity=100;rounded=1;absoluteArcSize=1;arcSize=12;fillColor=#ffffff;strokeWidth=2.3;container=1;pointerEvents=0;collapsible=0;recursiveResize=0;lucidId=-u2NlGh-AkDf;" vertex="1" parent="1">
          <mxGeometry x="1456" y="555" width="629" height="264" as="geometry" />
        </mxCell>
        <mxCell id="8" value="" style="group;dropTarget=0;pointerEvents=0;" vertex="1" parent="1">
          <mxGeometry as="geometry" />
        </mxCell>
        <mxCell id="9" value="" style="group;dropTarget=0;pointerEvents=0;" vertex="1" parent="1">
          <mxGeometry as="geometry" />
        </mxCell>
        <mxCell id="10" value="" style="html=1;overflow=block;blockSpacing=1;whiteSpace=wrap;fontSize=13;align=center;spacing=3.8;strokeColor=#unset;rounded=1;absoluteArcSize=1;arcSize=12;fillColor=#unset;strokeWidth=NaN;lucidId=7X7MiWF~K5Hu;" vertex="1" parent="1">
          <mxGeometry x="-75" y="525" width="420" height="330" as="geometry" />
        </mxCell>
        <mxCell id="11" value="" style="html=1;jettySize=18;whiteSpace=wrap;fontSize=13;strokeColor=#3a414a;strokeOpacity=100;strokeWidth=0.8;rounded=1;arcSize=24;edgeStyle=orthogonalEdgeStyle;startArrow=none;endArrow=block;endFill=1;entryX=0;entryY=0.156;entryPerimeter=0;lucidId=FY7MXUKkzTnU;" edge="1" target="27" parent="1">
          <mxGeometry width="100" height="100" relative="1" as="geometry">
            <Array as="points" />
            <mxPoint x="675" y="689" as="sourcePoint" />
          </mxGeometry>
        </mxCell>
        <mxCell id="12" value="Request for Inferences" style="text;html=1;resizable=0;labelBackgroundColor=default;align=center;verticalAlign=middle;fontColor=#333333;fontSize=18.3;" vertex="1" parent="11">
          <mxGeometry x="-0.7296296296296296" relative="1" as="geometry">
            <mxPoint as="offset" />
          </mxGeometry>
        </mxCell>
        <mxCell id="13" value="Allora Network&#xa;Public Head Nodes" style="html=1;overflow=block;blockSpacing=1;whiteSpace=wrap;fontSize=18.3;align=center;spacing=0;verticalAlign=middle;strokeColor=#5a6c86;strokeOpacity=100;fillOpacity=0;rounded=1;absoluteArcSize=1;arcSize=12;fillColor=#ffffff;strokeWidth=2.3;container=1;pointerEvents=0;collapsible=0;recursiveResize=0;lucidId=Q51NzTwxD9la;" vertex="1" parent="1">
          <mxGeometry x="495" y="675" width="165" height="75" as="geometry" />
        </mxCell>
        <mxCell id="14" value="" style="html=1;jettySize=18;whiteSpace=wrap;fontSize=13;strokeColor=#3a414a;strokeOpacity=100;strokeWidth=0.8;rounded=1;arcSize=24;edgeStyle=orthogonalEdgeStyle;startArrow=none;endArrow=block;endFill=1;exitX=0;exitY=0.657;exitPerimeter=0;entryX=1.007;entryY=0.788;entryPerimeter=0;lucidId=kj2NyueEfGJ9;" edge="1" source="27" target="13" parent="1">
          <mxGeometry width="100" height="100" relative="1" as="geometry">
            <Array as="points" />
          </mxGeometry>
        </mxCell>
        <mxCell id="15" value="Response with Inferences" style="text;html=1;resizable=0;labelBackgroundColor=default;align=center;verticalAlign=middle;fontColor=#333333;fontSize=18.3;" vertex="1" parent="14">
          <mxGeometry x="0.6843987246741681" relative="1" as="geometry">
            <mxPoint as="offset" />
          </mxGeometry>
        </mxCell>
        <mxCell id="16" value="" style="html=1;jettySize=18;whiteSpace=wrap;fontSize=13;strokeColor=#3a414a;strokeOpacity=100;strokeWidth=0.8;rounded=1;arcSize=24;edgeStyle=orthogonalEdgeStyle;startArrow=none;endArrow=block;endFill=1;lucidId=3W2NCLsf5O8j;" edge="1" parent="1">
          <mxGeometry width="100" height="100" relative="1" as="geometry">
            <Array as="points" />
            <mxPoint x="345" y="692" as="sourcePoint" />
            <mxPoint x="495" y="692" as="targetPoint" />
          </mxGeometry>
        </mxCell>
        <mxCell id="17" value="Request" style="text;html=1;resizable=0;labelBackgroundColor=default;align=center;verticalAlign=middle;fontColor=#333333;fontSize=18.3;" vertex="1" parent="16">
          <mxGeometry relative="1" as="geometry">
            <mxPoint as="offset" />
          </mxGeometry>
        </mxCell>
        <mxCell id="18" value="" style="html=1;jettySize=18;whiteSpace=wrap;fontSize=13;strokeColor=#3a414a;strokeOpacity=100;strokeWidth=0.8;rounded=1;arcSize=24;edgeStyle=orthogonalEdgeStyle;startArrow=none;endArrow=block;endFill=1;lucidId=BZ2N9~-V4MCM;" edge="1" parent="1">
          <mxGeometry width="100" height="100" relative="1" as="geometry">
            <Array as="points" />
            <mxPoint x="495" y="735" as="sourcePoint" />
            <mxPoint x="345" y="735" as="targetPoint" />
          </mxGeometry>
        </mxCell>
        <mxCell id="19" value="Response" style="text;html=1;resizable=0;labelBackgroundColor=default;align=center;verticalAlign=middle;fontColor=#333333;fontSize=18.3;" vertex="1" parent="18">
          <mxGeometry x="-0.10999999999999999" relative="1" as="geometry">
            <mxPoint as="offset" />
          </mxGeometry>
        </mxCell>
        <mxCell id="20" value="VPC Internet Gateway" style="html=1;overflow=block;blockSpacing=1;whiteSpace=wrap;shape=mxgraph.aws3.internet_gateway;labelPosition=center;verticalLabelPosition=bottom;align=center;verticalAlign=top;pointerEvents=1;fontSize=18.3;fontColor=#3a414a;spacing=3.8;strokeColor=#3a414a;strokeOpacity=100;rounded=1;absoluteArcSize=1;arcSize=12;fillColor=#f58536;strokeWidth=0.8;lucidId=H07MxiphtlWI;" vertex="1" parent="1">
          <mxGeometry x="1035" y="645" width="120" height="135" as="geometry" />
        </mxCell>
        <mxCell id="21" value="" style="html=1;overflow=block;blockSpacing=1;whiteSpace=wrap;shape=image;fontSize=13;spacing=0;verticalAlign=top;strokeColor=none;strokeOpacity=0;rounded=1;absoluteArcSize=1;arcSize=12;dashed=1;fixDash=1;dashPattern=1 4;strokeWidth=0;image=https://images.lucid.app/images/26d560da-be5f-4e5a-8a1f-d08955e03b65/content;imageAspect=0;lucidId=Nr3NNLmmP2up;" vertex="1" parent="1">
          <mxGeometry x="-13" y="600" width="266" height="110" as="geometry" />
        </mxCell>
        <mxCell id="22" value="" style="html=1;jettySize=18;whiteSpace=wrap;fontSize=13;strokeColor=#3a414a;strokeOpacity=100;strokeWidth=0.8;rounded=1;arcSize=24;edgeStyle=orthogonalEdgeStyle;startArrow=none;endArrow=block;endFill=1;exitX=1;exitY=0.167;exitPerimeter=0;lucidId=bD3NWywXu_YH;" edge="1" source="27" parent="1">
          <mxGeometry width="100" height="100" relative="1" as="geometry">
            <Array as="points" />
            <mxPoint x="1858" y="690" as="targetPoint" />
          </mxGeometry>
        </mxCell>
        <mxCell id="23" value="Call Main.py" style="text;html=1;resizable=0;labelBackgroundColor=default;align=center;verticalAlign=middle;fontColor=#333333;fontSize=18.3;" vertex="1" parent="22">
          <mxGeometry x="-0.1696745874502491" relative="1" as="geometry">
            <mxPoint as="offset" />
          </mxGeometry>
        </mxCell>
        <mxCell id="24" value="" style="html=1;jettySize=18;whiteSpace=wrap;fontSize=13;strokeColor=#3a414a;strokeOpacity=100;strokeWidth=0.8;rounded=1;arcSize=24;edgeStyle=orthogonalEdgeStyle;startArrow=none;endArrow=block;endFill=1;entryX=1;entryY=0.667;entryPerimeter=0;lucidId=jD3NIj7fWPk6;" edge="1" target="27" parent="1">
          <mxGeometry width="100" height="100" relative="1" as="geometry">
            <Array as="points" />
            <mxPoint x="1860" y="735" as="sourcePoint" />
          </mxGeometry>
        </mxCell>
        <mxCell id="25" value="Return Inferences" style="text;html=1;resizable=0;labelBackgroundColor=default;align=center;verticalAlign=middle;fontColor=#333333;fontSize=18.3;" vertex="1" parent="24">
          <mxGeometry relative="1" as="geometry">
            <mxPoint as="offset" />
          </mxGeometry>
        </mxCell>
        <mxCell id="26" value="A self-improviing decentralized AI network " style="html=1;overflow=block;blockSpacing=1;whiteSpace=wrap;fontSize=21.7;spacing=3.8;verticalAlign=middle;strokeOpacity=0;fillOpacity=0;rounded=1;absoluteArcSize=1;arcSize=12;fillColor=#000000;strokeWidth=NaN;lucidId=WgfOnQqIrc8R;" vertex="1" parent="1">
          <mxGeometry y="659" width="255" height="127" as="geometry" />
        </mxCell>
        <mxCell id="27" value="Worker&#xa;Container" style="html=1;overflow=block;blockSpacing=1;whiteSpace=wrap;shape=mxgraph.aws3.ec2_compute_container;labelPosition=center;verticalLabelPosition=bottom;align=center;verticalAlign=top;pointerEvents=1;fontSize=18.3;fontColor=#333333;spacing=3.8;strokeColor=none;strokeOpacity=100;rounded=1;absoluteArcSize=1;arcSize=12;fillColor=#f58536;dashed=1;fixDash=1;dashPattern=1 4;strokeWidth=0;lucidId=2fYOvTz-elsl;" vertex="1" parent="1">
          <mxGeometry x="1500" y="675" width="135" height="90" as="geometry" />
        </mxCell>
        <mxCell id="28" value="Inference Container" style="html=1;overflow=block;blockSpacing=1;whiteSpace=wrap;shape=mxgraph.aws3.ec2_compute_container;labelPosition=center;verticalLabelPosition=bottom;align=center;verticalAlign=top;pointerEvents=1;fontSize=18.3;fontColor=#333333;spacing=3.8;strokeColor=none;strokeOpacity=100;rounded=1;absoluteArcSize=1;arcSize=12;fillColor=#f58536;dashed=1;fixDash=1;dashPattern=1 4;strokeWidth=0;lucidId=ruYOFB6uyYjL;" vertex="1" parent="1">
          <mxGeometry x="1864" y="668" width="135" height="90" as="geometry" />
        </mxCell>
      </root>
    </mxGraphModel>
  </diagram>
</mxfile>
